<svg width="96" height="96" viewBox="0 0 96 96" fill="none" xmlns="http://www.w3.org/2000/svg">
<g filter="url(#filter0_d_402_1632)">
<mask id="path-2-inside-1_402_1632" fill="white">
<path fill-rule="evenodd" clip-rule="evenodd" d="M55.2231 32.1978C60.4348 38.4088 60.1212 47.4174 54.805 53.2485L57.1096 55.995C58.9583 55.4509 61.0364 56.0074 62.3544 57.5781L67.4967 63.7064C69.2717 65.8218 68.9957 68.9756 66.8804 70.7506C64.765 72.5256 61.6112 72.2497 59.8362 70.1343L54.6939 64.006C53.376 62.4354 53.1887 60.2924 54.0455 58.5662L51.7646 55.848C45.0736 60.2644 35.9872 59.0565 30.7097 52.767C25.0297 45.9978 25.9126 35.9057 32.6818 30.2257C39.451 24.5456 49.5431 25.4286 55.2231 32.1978Z"/>
</mask>
<path fill-rule="evenodd" clip-rule="evenodd" d="M55.2231 32.1978C60.4348 38.4088 60.1212 47.4174 54.805 53.2485L57.1096 55.995C58.9583 55.4509 61.0364 56.0074 62.3544 57.5781L67.4967 63.7064C69.2717 65.8218 68.9957 68.9756 66.8804 70.7506C64.765 72.5256 61.6112 72.2497 59.8362 70.1343L54.6939 64.006C53.376 62.4354 53.1887 60.2924 54.0455 58.5662L51.7646 55.848C45.0736 60.2644 35.9872 59.0565 30.7097 52.767C25.0297 45.9978 25.9126 35.9057 32.6818 30.2257C39.451 24.5456 49.5431 25.4286 55.2231 32.1978Z" fill="#101010"/>
<path d="M54.805 53.2485L53.8812 52.4063L53.1446 53.2143L53.8474 54.052L54.805 53.2485ZM57.1096 55.995L56.152 56.7985L56.6778 57.4251L57.4625 57.1941L57.1096 55.995ZM62.3544 57.5781L61.3968 58.3816L62.3544 57.5781ZM67.4967 63.7064L68.4542 62.903L67.4967 63.7064ZM59.8362 70.1343L58.8787 70.9378L59.8362 70.1343ZM54.6939 64.006L55.6515 63.2025L54.6939 64.006ZM54.0455 58.5662L55.1651 59.122L55.5288 58.3893L55.003 57.7628L54.0455 58.5662ZM51.7646 55.848L52.7222 55.0445L52.0059 54.191L51.076 54.8048L51.7646 55.848ZM55.7287 54.0906C61.4611 47.8032 61.8002 38.0914 56.1807 31.3943L54.2656 33.0012C59.0695 38.7263 58.7813 47.0317 53.8812 52.4063L55.7287 54.0906ZM58.0671 55.1915L55.7625 52.445L53.8474 54.052L56.152 56.7985L58.0671 55.1915ZM57.4625 57.1941C58.8518 56.7852 60.4096 57.2051 61.3968 58.3816L63.3119 56.7746C61.6632 54.8098 59.0648 54.1165 56.7566 54.7958L57.4625 57.1941ZM61.3968 58.3816L66.5391 64.5099L68.4542 62.903L63.3119 56.7746L61.3968 58.3816ZM66.5391 64.5099C67.8704 66.0965 67.6634 68.4618 66.0769 69.7931L67.6839 71.7082C70.3281 69.4894 70.673 65.5472 68.4542 62.903L66.5391 64.5099ZM66.0769 69.7931C64.4904 71.1243 62.125 70.9174 60.7938 69.3308L58.8787 70.9378C61.0974 73.582 65.0396 73.9269 67.6839 71.7082L66.0769 69.7931ZM60.7938 69.3308L55.6515 63.2025L53.7364 64.8095L58.8787 70.9378L60.7938 69.3308ZM55.6515 63.2025C54.6643 62.026 54.5213 60.4191 55.1651 59.122L52.9258 58.0105C51.8561 60.1656 52.0878 62.8447 53.7364 64.8095L55.6515 63.2025ZM50.807 56.6515L53.0879 59.3697L55.003 57.7628L52.7222 55.0445L50.807 56.6515ZM29.7522 53.5704C35.4425 60.352 45.2384 61.6534 52.4532 56.8912L51.076 54.8048C44.9089 58.8754 36.5319 57.7609 31.6673 51.9635L29.7522 53.5704ZM31.8783 29.2681C24.5803 35.3919 23.6284 46.2724 29.7522 53.5704L31.6673 51.9635C26.431 45.7231 27.245 36.4195 33.4853 31.1832L31.8783 29.2681ZM56.1807 31.3943C50.0569 24.0962 39.1764 23.1443 31.8783 29.2681L33.4853 31.1832C39.7257 25.9469 49.0293 26.7609 54.2656 33.0012L56.1807 31.3943Z" fill="#101010" mask="url(#path-2-inside-1_402_1632)"/>
<rect x="50.4951" y="49.1134" width="2.75" height="9.75" transform="rotate(-40 50.4951 49.1134)" stroke="#101010" stroke-width="1.25"/>
<circle cx="44.5592" cy="40.2773" r="15.375" transform="rotate(-40 44.5592 40.2773)" fill="#FF6610" stroke="#101010" stroke-width="1.25"/>
<circle cx="44.979" cy="40.3634" r="11.375" transform="rotate(-40 44.979 40.3634)" fill="#EAC800" stroke="#101010" stroke-width="1.25"/>
<circle cx="47.9629" cy="36.0993" r="3" transform="rotate(-40 47.9629 36.0993)" fill="white"/>
<rect x="53.982" y="57.9364" width="8.75" height="16.75" rx="2.375" transform="rotate(-40 53.982 57.9364)" fill="#FF6610" stroke="#101010" stroke-width="1.25"/>
</g>
<defs>
<filter id="filter0_d_402_1632" x="22.9661" y="24.2769" width="52.1396" height="55.6436" filterUnits="userSpaceOnUse" color-interpolation-filters="sRGB">
<feFlood flood-opacity="0" result="BackgroundImageFix"/>
<feColorMatrix in="SourceAlpha" type="matrix" values="0 0 0 0 0 0 0 0 0 0 0 0 0 0 0 0 0 0 127 0" result="hardAlpha"/>
<feOffset dy="4"/>
<feGaussianBlur stdDeviation="2"/>
<feComposite in2="hardAlpha" operator="out"/>
<feColorMatrix type="matrix" values="0 0 0 0 0 0 0 0 0 0 0 0 0 0 0 0 0 0 0.25 0"/>
<feBlend mode="normal" in2="BackgroundImageFix" result="effect1_dropShadow_402_1632"/>
<feBlend mode="normal" in="SourceGraphic" in2="effect1_dropShadow_402_1632" result="shape"/>
</filter>
</defs>
</svg>
